<svg width="80" height="81" viewBox="0 0 80 81" fill="none" xmlns="http://www.w3.org/2000/svg">
<rect y="0.4375" width="80" height="80" rx="40" fill="white"/>
<path d="M20.5251 14.4409C19.0492 14.4724 17.8029 14.7914 16.7843 15.3991C15.873 15.9432 15.1498 16.7482 14.6881 17.7325C13.7856 19.6583 13.7707 22.3085 14.6444 25.5481C15.5175 28.7844 17.2571 32.5006 19.7255 36.4015L19.8471 36.5945L19.8654 36.5729C19.8748 36.5613 19.9832 36.422 20.1059 36.2639C20.7761 35.4007 21.4601 34.5559 22.2055 33.6706C22.2951 33.5639 22.3808 33.4627 22.3957 33.4456L22.4228 33.4141L22.268 33.1553C21.7416 32.2756 21.2843 31.4589 20.8319 30.5908C20.7186 30.373 20.3558 29.647 20.2519 29.4297C19.3456 27.5375 18.6981 25.8141 18.2994 24.2377C17.8775 22.5695 17.7608 21.1175 17.9654 20.0852C18.0727 19.5427 18.2784 19.1181 18.5482 18.8825C18.8651 18.6055 19.3478 18.4269 19.9887 18.3495C20.2751 18.3147 20.4775 18.3053 20.8596 18.3092C21.4026 18.3147 21.8826 18.3595 22.4991 18.4623C25.6432 18.9865 29.7025 20.7631 33.995 23.4945C38.7217 26.5014 43.5263 30.504 47.9522 35.1221C48.4626 35.6551 49.0083 36.2412 49.5347 36.8207L49.6984 37.0015L49.8223 36.8428C50.5107 35.9586 51.1942 35.0336 51.8068 34.1572C52.0645 33.7884 52.0391 33.8277 52.0275 33.8144C51.9086 33.6811 51.3661 33.0994 51.0349 32.75C46.5582 28.0285 41.5899 23.8279 36.7322 20.6563C33.1208 18.2987 29.6737 16.5586 26.5578 15.5202C24.2968 14.7671 22.2663 14.4038 20.5251 14.4409Z" fill="black"/>
<path d="M58.8974 14.4409C55.7549 14.531 51.8052 15.8177 47.4125 18.182C46.2806 18.7913 45.1647 19.4465 43.946 20.2184L43.8421 20.2842L43.8631 20.3019C43.8752 20.3113 44.014 20.4197 44.1722 20.5425C45.0564 21.2286 46.0052 21.9983 46.8673 22.7276C46.9541 22.8012 47.0265 22.8603 47.0282 22.8598C47.0304 22.8592 47.0702 22.8354 47.1172 22.8067C47.1642 22.7779 47.2881 22.7039 47.3931 22.6414C48.9127 21.7379 50.3636 20.9743 51.7725 20.3357C54.691 19.0136 57.2894 18.3075 59.2374 18.3075C60.0215 18.3075 60.6453 18.422 61.0926 18.6476C61.2729 18.7382 61.3829 18.8151 61.5023 18.9345C61.6909 19.1236 61.8258 19.3647 61.9414 19.7197C62.0957 20.1947 62.1593 20.8515 62.1233 21.6002C62.0487 23.1749 61.5621 25.1113 60.6972 27.276C60.4103 27.9937 60.115 28.6633 59.7456 29.4352C59.6422 29.6525 59.2916 30.3531 59.1711 30.5853C57.0101 34.7411 53.8738 39.1761 50.0639 43.463C48.0755 45.7007 45.9295 47.8693 43.6977 49.8958C43.5556 50.0252 43.4395 50.1324 43.4395 50.1346C43.4395 50.1363 43.5374 50.2143 43.6568 50.3066C44.4918 50.9546 45.2925 51.5474 46.113 52.1257C46.3398 52.285 46.603 52.468 46.6107 52.4708C46.6251 52.4768 47.6696 51.4959 48.3442 50.8424C49.0244 50.1838 49.9511 49.2549 50.5787 48.6025C55.6842 43.2932 59.8402 37.6827 62.6049 32.3657C62.8372 31.919 63.2276 31.1266 63.4382 30.6749C64.5325 28.3255 65.2879 26.1359 65.6816 24.1686C65.9453 22.8498 66.046 21.6312 65.9807 20.5469C65.9066 19.3238 65.6224 18.2644 65.1331 17.3841C64.8483 16.8721 64.4944 16.4215 64.0758 16.0383C63.0351 15.0862 61.6201 14.5553 59.854 14.4536C59.5991 14.4392 59.1606 14.4331 58.8974 14.4409Z" fill="black"/>
<path d="M33.1949 28.5765C31.8778 29.7924 30.5358 31.1095 29.3032 32.3961C28.9073 32.8097 28.6778 33.0525 28.3322 33.4246C25.0305 36.9799 22.1413 40.679 19.8184 44.3256C18.5737 46.2791 17.4976 48.2132 16.6284 50.0594C14.6975 54.1599 13.805 57.7744 14.0361 60.5568C14.2048 62.5844 14.9795 64.1525 16.3066 65.1527C16.4304 65.2462 16.5952 65.3606 16.7014 65.4264C17.2261 65.7532 17.8205 66.0026 18.4819 66.1718C19.5646 66.4493 20.838 66.5102 22.2586 66.3509C24.6042 66.0888 27.3474 65.2323 30.3334 63.8307C30.7956 63.6139 31.5549 63.2379 31.9933 63.0085C33.0771 62.4423 34.1327 61.8429 35.2171 61.1788C35.5859 60.9527 36.1482 60.5994 36.1543 60.5905C36.1554 60.5877 36.1261 60.5629 36.0891 60.5341C35.2707 59.9076 34.1338 58.9903 33.1877 58.1925C33.0793 58.1018 32.9876 58.0244 32.9826 58.0205C32.9754 58.015 32.95 58.0282 32.8305 58.1001C31.1534 59.1076 29.5565 59.9486 28.0231 60.6314C25.4917 61.7588 23.2063 62.4174 21.3877 62.5446C20.9718 62.5733 20.5394 62.5733 20.1905 62.544C19.4291 62.481 18.8518 62.2803 18.5184 61.9634C17.9079 61.3829 17.7144 59.9862 17.9903 58.1515C18.431 55.2188 20.0075 51.4296 22.4676 47.3888C25.2418 42.8327 28.9797 38.1637 33.3591 33.784C33.7086 33.4351 34.2787 32.8744 34.4485 32.7141C34.4833 32.6809 34.5978 32.5714 34.7028 32.4713C35.2143 31.9809 35.8093 31.4263 36.3257 30.9585C36.438 30.8568 36.5381 30.7655 36.548 30.7567L36.5663 30.7401L36.5099 30.6959C36.4784 30.6721 36.3816 30.5969 36.2942 30.5294C35.6373 30.0196 34.9566 29.512 34.2964 29.0393C33.8983 28.754 33.3973 28.404 33.3879 28.404C33.3846 28.404 33.2978 28.4814 33.1949 28.5765Z" fill="black"/>
<path d="M30.1437 44.0751C29.3812 45.0593 28.6894 46.0004 28.0463 46.9287L27.9623 47.0498L28.0552 47.1499C29.7251 48.9608 31.4277 50.6654 33.1794 52.2828C38.7311 57.4067 44.5869 61.4863 49.9279 63.9501C51.6321 64.7364 53.2832 65.3523 54.8 65.7676C56.1171 66.1281 57.3458 66.3437 58.4688 66.4123C58.7105 66.4267 58.7967 66.4294 59.1103 66.4328C59.5344 66.4366 59.8125 66.4267 60.1692 66.3957C62.2533 66.2116 63.8369 65.3894 64.8289 63.9766C65.4267 63.1251 65.8021 62.0563 65.9387 60.8167C65.9835 60.413 65.9973 60.1388 65.9973 59.6583C65.9973 59.2978 65.9935 59.1728 65.9747 58.8759C65.7502 55.2879 64.0233 50.6881 61.0263 45.6913C60.7763 45.2738 60.4904 44.8116 60.2129 44.3737L60.1526 44.278L60.1388 44.2963C59.2911 45.3922 58.549 46.3117 57.7113 47.3031C57.646 47.3805 57.5891 47.4479 57.5852 47.4529C57.5797 47.4607 57.6013 47.5005 57.7351 47.7239C59.7981 51.1675 61.2087 54.4126 61.8115 57.0982C62.0741 58.2677 62.1786 59.3276 62.1156 60.1808C62.0608 60.9206 61.8844 61.4829 61.5936 61.8434C61.0655 62.4987 59.6837 62.7254 57.823 62.4616C55.0814 62.0724 51.5724 60.6762 47.794 58.4706C43.497 55.9625 39.0242 52.5294 34.7913 48.4897C33.3038 47.0703 31.7871 45.5144 30.4478 44.0336C30.3693 43.9462 30.303 43.8749 30.3013 43.8749C30.2996 43.8755 30.2289 43.965 30.1437 44.0751Z" fill="black"/>
</svg>
